<svg xmlns="http://www.w3.org/2000/svg" viewBox="15 -4.6 89.4 66">
<!-- Headphone mark for flow-state. Generated art (QuiverAI Arrow); wordmark
     removed so the app supplies its own type. -->
  <style type="text/css">.cls-0 {fill:#2B3336;}
.cls-1 {fill:url(#XMLID_3_);}
.cls-2 {fill:#030303;}
.cls-3 {fill:#BA9A5A;}
.cls-4 {fill:url(#SVGID_1_);}
.cls-5 {fill:url(#SVGID_2_);}
.cls-6 {fill:none;stroke:#2B3336;stroke-width:1.3709;stroke-miterlimit:10;}
.cls-7 {fill:url(#SVGID_3_);}</style>
  <path class="cls-0" d="m87 9.9 1.9 6.1 1-0.1-2-6.2c-0.1-0.6-1.2-0.4-0.9 0.2z"/>
  <linearGradient id="XMLID_3_" x1="28.7" x2="33.35" y1="57.28" y2="57.28" gradientTransform="matrix(1 0 0 -1 0 74)" gradientUnits="userSpaceOnUse">
    <stop stop-color="#3D4447" offset="0"/>
    <stop stop-color="#2B3336" offset="1"/>
  </linearGradient>
  <path class="cls-1" d="m32.3 9.7-2.1 6.3h0.8l2.4-6c0.3-0.4-1-0.9-1.1-0.3z"/>
  <path class="cls-0" d="m32.9 9c-0.4-0.1-0.7 0.1-0.8 0.5l-5.1 17.4h-0.6c-0.4 0-0.8 0.6 0 1.3-2.7 1.7-3.3 4.8-3.2 8.1s1.8 8.1 2.8 8.6l2.9-17.6 4.4-17.4c0.3-0.3 0-0.8-0.4-0.9zm55.8 0.5c-0.1-0.4-0.4-0.5-0.7-0.4s-0.6 0.4-0.5 0.8l3.8 17.4 3.1 17.7c0.6-0.6 1.6-4.2 1.8-8.3 0.2-3.9-0.5-6.7-2.7-8.3 0.8-0.9 0.3-1.3-0.3-1.1h-0.4l-4.1-17.8z"/>
  <path class="cls-2" d="m31.6 16.5c1.7-5.6 9.5-20.1 26.8-20.8 14.5-0.4 24.9 8.3 29.3 20.2l-1.7 1.1c-3.3-5.6-10.2-15.2-23.3-16.3-11.3-0.9-20.7 3.3-26.8 11.2l-2.9 4.7-1.4-0.1z"/>
  <path class="cls-2" d="m28.7 16.5-1.6 5.5c-0.1 0.6 0.1 1.1 0.7 1.3l2.2 0.6c0.6 0.2 1.2 0 1.4-0.7l1.6-5.3c0.3-1.3-2.1-2.2-3-2.3-0.6-0.1-1.1 0.3-1.3 0.9zm62.3 0c-0.1-0.5-0.6-0.9-1.2-0.8-0.8 0-3.6 0.8-3.2 2.2l1.3 5.1c0.2 0.7 0.8 1 1.4 0.8l2.1-0.5c0.6-0.2 1-0.7 0.8-1.4l-1.3-5.4h0.1z"/>
  <path class="cls-0" d="m92.4 28.6c-1.1-0.9-3.2-2-6-1.2l-4-0.8c-4.7-1-8.9 2.1-11.3 9.2-2.1 5.9-2.4 16.9 4 18.2l2.1 0.5 0.7 3.1c-0.6 1.2 2.7 2.3 3.6 1.9l2.9-3.3c5.7 0.7 9.5-7.6 10.3-13.1 0.8-7.1 1.3-12-2.3-14.5z"/>
  <path class="cls-2" d="m91.1 28.2c2 0.4 4.5 2.4 4.5 6.8 0.1 2-0.1 4.9-1 8.5 0.9-1.3 1.4-5.4 1.4-7.4 0-3.5-1-6.6-3.4-7.9-0.3-0.2-1.3-0.2-1.5 0z"/>
  <linearGradient id="SVGID_1_" x1="79.95" x2="85.71" y1="23.34" y2="37.03" gradientUnits="userSpaceOnUse">
    <stop stop-color="#9E8045" offset="0"/>
    <stop stop-color="#F3DA8C" offset=".4775"/>
    <stop stop-color="#AC8F51" offset="1"/>
  </linearGradient>
  <path class="cls-4" d="m85.2 27.6c-4-0.1-7.2 4.4-9.1 10.1-1.1 3.6-1.8 11.2 1 15.7l-0.1-0.7 3.2 0.7c0.4 0.4 1.2 1.3 2.4 1.9-2.9-2.1-3.6-9.7-1.7-16.3 0.7-2.2 1.5-4.2 2.4-6-2.2 2.9-3.9 6.9-3.9 6.9-0.4 0.9-1.7 0.9-2.2 0.5-0.6-0.5-0.7-1.3-0.3-2 1.5-3.9 5.6-9.5 8.3-10.8z"/>
  <ellipse class="cls-3" cx="77.7" cy="39" rx=".7" ry=".7"/>
  <linearGradient id="SVGID_2_" x1="79.88" x2="93.99" y1="40.46" y2="37.28" gradientUnits="userSpaceOnUse">
    <stop stop-color="#A88A4C" offset="0"/>
    <stop stop-color="#F7DC8B" offset=".505"/>
    <stop stop-color="#987E4F" offset="1"/>
  </linearGradient>
  <path class="cls-5" d="m88.6 29.3c-3 0.6-6.2 4.8-7.5 11.1-1.3 5.9-0.9 14.5 4 14.7 3.4 0.2 7.3-4.5 8.5-11.6 1.1-6.7-0.3-14.9-5-14.2z"/>
  <path class="cls-2" d="m89.8 30.8 1.2 0.5c0.3 0.1 0.2 1.1-0.2 1l-1.2-0.4c-0.4-0.3-0.2-1.3 0.2-1.1z"/>
  <path class="cls-2" d="m87.6 31.6 1.1 0.5c0.4 0.2 0.2 1-0.2 0.9l-1.1-0.6c-0.5-0.2-0.2-0.9 0.2-0.8z"/>
  <path class="cls-2" d="m86 32.4 1.9 0.8c0.4 0.2 0.2 1.1-0.3 0.9l-1.8-0.9c-0.4-0.2-0.2-0.8 0.2-0.8z"/>
  <path class="cls-2" d="m85.2 33.5 2.3 1c0.4 0.2 0.2 1-0.3 0.9l-2.1-1c-0.5-0.1-0.4-0.9 0.1-0.9z"/>
  <path class="cls-2" d="m84.5 34.6 2.4 1c0.6 0.3 0.1 1-0.2 0.9l-2.3-1.1c-0.5-0.2-0.2-0.9 0.1-0.8z"/>
  <path class="cls-2" d="m83.9 35.9 2.5 1.1c0.4 0.2 0.2 0.9-0.3 0.9l-2.5-1.1c-0.4-0.2-0.2-0.9 0.3-0.9z"/>
  <path class="cls-2" d="m83.2 37.2 2.8 1.1c0.4 0.2 0.1 1.1-0.4 0.8l-2.4-1.1c-0.5-0.1-0.2-0.9 0-0.8z"/>
  <path class="cls-2" d="m82.8 38.6 2.6 1.1c0.6 0.2 0.2 1.1-0.2 0.9l-2.5-1c-0.3-0.1-0.2-0.9 0.1-1z"/>
  <path class="cls-2" d="m82.3 39.9 2.4 1c0.4 0.2 0 1-0.4 0.8l-2.2-0.8c-0.2-0.1 0-1 0.2-1z"/>
  <path class="cls-2" d="m81.9 41.5 2.2 0.9c0.4 0.2 0.2 1-0.3 0.9l-1.9-0.7c-0.4-0.1-0.3-1 0-1.1z"/>
  <path class="cls-2" d="m81.5 43 1.8 0.7c0.4 0.1 0.2 0.9-0.3 0.8l-1.4-0.5c-0.2-0.1-0.2-0.9-0.1-1z"/>
  <path class="cls-2" d="m81.5 45.7 0.9 0.3c0.4 0.2 0 1-0.4 0.9l-0.5-0.2c-0.1-0.1-0.1-1 0-1z"/>
  <path class="cls-2" d="m81.6 47.4 0.5 0.3c0 0.7-0.6 0.8-0.6 0.2v-0.5h0.1z"/>
  <path class="cls-2" d="m82.3 49.3 5.4 2c0.4 0.1 0.2 1-0.2 0.9l-5.3-1.8c-0.6-0.2-0.3-1.2 0.1-1.1z"/>
  <path class="cls-2" d="m84 51.6 1.6 0.5c0.2 0.2 0 0.9-0.2 0.8l-1.4-0.4c-0.5 0-0.4-1.1 0-0.9z"/>
  <path class="cls-2" d="m82.8 48 5.1 2c0.4 0.1 0.2 1-0.3 0.9l-5.1-1.9c-0.6-0.1-0.1-1.1 0.3-1z"/>
  <path class="cls-2" d="m83.1 46.6 4.8 1.8c0.6 0.2 0.3 1.1-0.1 1l-4.8-1.7c-0.6 0-0.3-1.1 0.1-1.1z"/>
  <path class="cls-2" d="m84 45.3 4.2 1.6c0.5 0.2 0.3 1.1-0.1 1l-4.5-1.3c-0.6-0.3-0.1-1.2 0.4-1.3z"/>
  <path class="cls-2" d="m84.5 44 4 1.6c0.5 0.1 0.2 1.2-0.2 1l-4.5-1.2c-0.4-0.2-0.1-1.3 0.7-1.4z"/>
  <path class="cls-2" d="m85 43 3.6 1.3c0.5 0.2 0.3 1.1-0.1 0.9l-4.1-1.2c-0.5-0.2 0-1.2 0.6-1z"/>
  <path class="cls-2" d="m85.2 42.6 3.4 1.3c0.4 0.2 0.4-0.9 0.1-0.9l-3.5-1c-0.5 0.1-0.7 0.6 0 0.6z"/>
  <path class="cls-2" d="m85.5 42.1 3 1.2c0.4 0.2 0.7-0.8 0.2-0.9l-3-1.1c-0.5 0-0.6 0.7-0.2 0.8z"/>
  <path class="cls-2" d="m86 40.2 2.5 1.1c0.5 0.2 0.9-0.7 0.2-0.9l-2.3-0.8c-0.4-0.1-0.9 0.6-0.4 0.6z"/>
  <path class="cls-2" d="m86.6 39.3 2.3 1.1c0.3 0.2 0.7-0.8 0.2-0.9l-2.3-0.9c-0.4-0.1-0.7 0.7-0.2 0.7z"/>
  <path class="cls-2" d="m86.9 38 2.1 0.8c0.4 0.2 0.6-0.8 0.4-0.8l-2-0.8c-0.5-0.1-0.8 0.7-0.5 0.8z"/>
  <path class="cls-2" d="m87.4 37 1.6 0.7c0.5 0.2 0.6-0.7 0.2-0.9l-1.5-0.7c-0.3-0.1-0.7 0.7-0.3 0.9z"/>
  <path class="cls-2" d="m88.2 35.6 1.2 0.5c0.2 0.2 0.6-0.7 0.1-0.9l-0.9-0.4c-0.5 0-0.8 0.8-0.4 0.8z"/>
  <path class="cls-2" d="m88.7 34.4 1.1 0.4-0.2 0.4 0.4-0.8c0-0.1-0.5-0.5-1-0.6-0.4-0.2-0.7 0.5-0.3 0.6z"/>
  <path class="cls-2" d="m89.2 32.8 0.8 0.4 0.1-0.6-0.3-0.4c-0.7-0.5-0.8 0.4-0.6 0.6z"/>
  <path class="cls-2" d="m91.1 33.2 1.2 0.6v1l-1.2-0.5c-0.7-0.2-0.3-1.2 0-1.1z"/>
  <path class="cls-2" d="m90.8 34.4 2 1c0.5 0.2 0.4 1.1 0 0.9l-2.1-0.9c-0.6-0.2-0.3-1.1 0.1-1z"/>
  <path class="cls-2" d="m90.6 35.9 2.6 1.1-0.1 0.9-2.5-1.1c-0.6-0.2-0.4-0.9 0-0.9z"/>
  <path class="cls-2" d="m90.6 37.2 2.5 1.1c0.2 0.1 0.2 1 0 0.8l-2.5-1.1c-0.6 0-0.2-0.9 0-0.8z"/>
  <path class="cls-2" d="m90.2 38.7 2.9 1.2c0.2 0.1 0.1 1-0.3 0.9l-2.6-1.1c-0.4-0.1-0.2-1 0-1z"/>
  <path class="cls-2" d="m90.2 40.2 2.6 1.1c0.5 0.2 0.1 1-0.1 0.9l-2.6-0.9c-0.5-0.2-0.1-1.1 0.1-1.1z"/>
  <path class="cls-2" d="m89.8 41.7 2.6 1.1 0.2 0.2-0.2 0.7-0.2 0.2-2.2-0.9c-0.9 0-0.5-1.3-0.2-1.3z"/>
  <path class="cls-2" d="m89.6 43.1 2.2 1.9 0.2 0.2-0.2 0.5h-0.2l-2-0.8c-0.6-0.2-0.4-1 0-1.8z"/>
  <path class="cls-2" d="m89.4 46 2 0.6 0.1 0.3-0.1 0.5-0.3 0.1-1.5-0.6c-0.7 0-0.6-1-0.2-0.9z"/>
  <path class="cls-2" d="m89.2 47.4 1.2 0.6-0.3 0.6-0.5 0.1c-0.9-0.1-0.9-1.2-0.4-1.3z"/>
  <polygon class="cls-2" points="88.7 50.4 89 51 89.5 50.9 89.5 50.4"/>
  <path class="cls-3" d="m78.6 58 0.4 0.1c0-0.6 1.4-0.1 2.1 0.5l-0.2 0.4c0.8 0.2 0.7-1.1-1.2-1.4-0.8 0-1.2 0.3-1.1 0.4z"/>
  <path class="cls-0" d="m33.1 27.4 4.2-0.8c4.8-1 8.3 2.1 10.4 7.3 2.5 6 4.3 16-1.5 19.7l-4.3 1-0.6 3.8-2.3 1.1-4.1-3.8c-4.7 0.7-8.6-5.1-10.1-12-1.1-4.3-2-11.7 2.3-15.3 1.1-0.9 3.4-1.7 6-1z"/>
  <path class="cls-2" d="m28.4 28.4c-1.7 0.2-4.3 2.5-4.6 5.9-0.1 1.3-0.3 4.1 0.9 8.1-0.8-4.4-0.7-12 3.7-14z"/>
  <linearGradient id="SVGID_3_" x1="30.77" x2="42.32" y1="23.5" y2="37.64" gradientUnits="userSpaceOnUse">
    <stop stop-color="#9E8045" offset="0"/>
    <stop stop-color="#F3DA8C" offset=".4775"/>
    <stop stop-color="#9D8145" offset=".9949"/>
  </linearGradient>
  <path class="cls-7" d="m34 27.7c4 1.8 7.5 6.6 8.8 10.9 0.5 1.3-1.2 1.4-1.6 0.7-0.6-1.6-2.6-4.3-4.7-6.3 1.4 1.8 3 6 3.4 8.9 0.5 4 0.2 10.6-3 13.2 2.2-1 3.1-3.1 3.5-6.5 0.6-4.6-0.5-10.7-2.6-14.6-1.8-3.4-4.9-5.6-7.4-5.1-4 1.1-4.8 7.5-4.4 12.2 0.7 6.9 4.5 14 8.5 13.9 4.1-0.1 4.9-5.8 4.2-12.4-0.9-5.6-4.2-13.6-8.6-13.6l3.9-1.3z"/>
  <path class="cls-3" d="m41.5 38.4c-0.9 0-0.9 1.2 0 1.3 0.9 0 0.9-1.3 0-1.3z"/>
  <linearGradient id="SVGID_4_" x1="25.38" x2="39.04" y1="40" y2="40" gradientUnits="userSpaceOnUse">
    <stop stop-color="#F7DC8B" offset="0"/>
    <stop stop-color="#89703D" offset="1"/>
  </linearGradient>
  <path d="m29.5 29.3c-2.9 0.2-4.7 5.1-4 11.5s4.1 14.3 9 14.1c4.1-0.2 5-6.4 4.1-12.1-0.8-5.8-4.4-13.5-9.1-13.5z" fill="url(#SVGID_4_)"/>
  <path class="cls-2" d="m28.8 31.3 0.9-0.4c0.5-0.3 0.5 0.8 0.2 0.8l-1.2 0.5c-0.5 0-0.5-0.7 0.1-0.9z"/>
  <path class="cls-2" d="m31.1 31.7 0.5-0.2c0.4-0.2 0.8 0.7 0.4 0.8l-1.3 0.5c-0.3-0.2-0.6-0.7 0.4-1.1z"/>
  <path class="cls-2" d="m32.7 32.4 0.4-0.2c0.6-0.2 1 0.6 0.4 0.8l-2 0.9c-0.4 0.2-1-0.8-0.4-0.9l1.6-0.6z"/>
  <path class="cls-2" d="m33.7 33.5 0.5-0.2c0.4-0.1 0.5 0.7 0.3 0.8l-2.5 1.3c-0.5 0.2-1-0.7-0.3-1l2-0.9z"/>
  <path class="cls-2" d="m34.5 33.9-0.1 1.1-2.2 1c-0.5 0-0.7-0.7-0.2-0.8l2.5-1.3z"/>
  <path class="cls-2" d="m34.6 34.6 0.4-0.1c0.4-0.1 0.5 0.9 0.2 0.9l-2.8 1.2c-0.4 0.1-0.8-0.7-0.2-0.9l2.4-1.1z"/>
  <path class="cls-2" d="m35.2 35.9 0.5-0.1c0.3 0.1 0.4 0.7 0.1 0.8l-2.9 1.3c-0.4 0.1-0.8-0.7-0.3-0.8l2.6-1.2z"/>
  <path class="cls-2" d="m35.4 36 0.4 1-2.4 1c-0.4 0.3-1-0.5-0.5-0.8l2.5-1.2z"/>
  <path class="cls-2" d="m35.9 37.2 0.4 0.5-0.3 0.3-2.5 1.1c-0.4 0.3-0.9-0.7-0.3-0.8l2.7-1.1z"/>
  <path class="cls-2" d="m36.4 38.3 0.5 0.5-0.2 0.2-2.7 0.9c-0.8 0-0.6-0.9-0.1-1.1l2.5-0.5z"/>
  <path class="cls-2" d="m36.7 39.3 0.4 0.3v0.4l-2.7 0.9c-0.5 0.2-1-0.7-0.4-0.9l2.7-0.7z"/>
  <path class="cls-2" d="m36.9 40.2 0.4 0.7-2.7 1c-0.5 0.2-0.9-0.6-0.4-0.8l2.7-0.9z"/>
  <path class="cls-2" d="m37.4 41.6 0.2 0.5-2.4 0.9c-0.6 0-0.7-0.9-0.1-1l2.3-0.4z"/>
  <path class="cls-2" d="m37.6 42.8 0.1 0.7-1.4 0.5c-0.5 0.1-1.1-0.6-0.4-0.7l1.7-0.5z"/>
  <path class="cls-2" d="m37.7 44.5 0.2 0.5-0.2 0.2-0.8 0.2c-0.5 0.1-0.8-0.6-0.2-0.7l1-0.2z"/>
  <path class="cls-2" d="m37.7 47.4h0.4l-0.2 0.5h-0.2c-0.6 0-0.7-0.5 0-0.5z"/>
  <path class="cls-2" d="m37.1 49.4c0.4 0 0.5 0.8 0 1l-5.6 1.8c-0.5 0.3-0.9-0.7-0.4-0.8l6-2z"/>
  <path class="cls-2" d="m35.4 51.6c0.4 0 0.4 0.9 0 0.9l-1.5 0.5c-0.5 0.1-0.5-0.7 0-0.8l1.5-0.6z"/>
  <path class="cls-2" d="m36.5 48c0.4-0.1 0.9 0.9 0.4 0.9l-5.5 2.1c-0.4 0.2-0.9-0.8-0.3-0.9l5.4-2.1z"/>
  <path class="cls-2" d="m35.8 46.6c0.6 0 0.9 0.9 0.3 0.9l-5 1.9c-0.5 0.2-0.9-0.8-0.2-0.9l4.9-1.9z"/>
  <path class="cls-2" d="m35.4 45.4c0.4 0 0.7 0.9 0.1 0.9l-4.5 1.6c-0.4 0.1-0.6-0.8-0.1-0.9l4.5-1.6z"/>
  <path class="cls-2" d="m34.5 43.7 0.6 0.4-0.1 0.5-4.4 1.7c-0.2 0.3-0.6-0.8 0-0.9l3.9-1.7z"/>
  <path class="cls-2" d="m33.9 42c0.5-0.1 0.7 1 0.2 1l-3.5 1.3c-0.4 0.2-0.9-0.7-0.2-0.9l3.5-1.4z"/>
  <path class="cls-2" d="m33.1 40.2c0.5 0 0.5 0.7 0.1 0.9l-3 1.1c-0.3 0.2-0.7-0.7-0.1-0.9l3-1.1z"/>
  <path class="cls-2" d="m32.5 38.8c0.4 0.2 0.5 0.8 0.2 0.9l-2.6 1.1c-0.1 0.1-0.7-0.9-0.1-1.1l2.5-0.9z"/>
  <path class="cls-2" d="m31.7 37.2c0.5 0 0.7 0.8 0.3 0.9l-2 0.7c-0.5 0-0.5-0.8 0-0.9l1.7-0.7z"/>
  <path class="cls-2" d="m31.1 35.9 0.5 0.7-0.5 0.4-1.1 0.5-0.6-0.5v-0.4l1.7-0.7z"/>
  <path class="cls-2" d="m30.2 33.8 0.2 0.1 0.2 0.6-0.1 0.3-1.1 0.4-0.4-0.6 0.1-0.2 1.1-0.6z"/>
  <path class="cls-2" d="m29.6 32.6 0.4 0.2v0.7l-0.9 0.3-0.1-0.8 0.6-0.4z"/>
  <path class="cls-2" d="m27.9 33.2 0.5 0.1 0.1 0.6-0.4 0.4-1.2 0.3v-0.7l0.2-0.3 0.8-0.4z"/>
  <path class="cls-2" d="m28 34.4 0.5 0.2v0.8l-1.9 0.9h-0.3l-0.1-0.5 0.1-0.4 1.7-1z"/>
  <path class="cls-2" d="m28.5 35.9 0.5 0.1-0.1 0.6-2.3 1.1h-0.4l-0.1-0.5 0.2-0.2 2.2-1.1z"/>
  <path class="cls-2" d="m28.5 37.2 0.5 0.7-2.4 0.9h-0.5v-0.4l0.1-0.3 2.3-0.9z"/>
  <path class="cls-2" d="m28.7 38.7 0.4 0.1v0.7l-2.5 1.1-0.4-0.2v-0.4l0.2-0.3 2.3-1z"/>
  <path class="cls-2" d="m28.9 40.2 0.5 0.2v0.7l-2.8 1.1-0.2-0.3v-0.5l2.5-1.2z"/>
  <path class="cls-2" d="m29 41.6c0.5 0 0.5 1 0 1l-2.3 0.9-0.2-0.4v-0.5l2.5-1z"/>
  <path class="cls-2" d="m29.4 43c0.2 0.1 0.5 0.9 0 0.9l-2.2 0.8-0.3-0.1-0.1-0.5 0.1-0.2 2.5-0.9z"/>
  <path class="cls-2" d="m29.6 44.5 0.3 0.5-0.3 0.4-1.9 0.6-0.3-0.1-0.2-0.5 0.2-0.2 2.2-0.7z"/>
  <path class="cls-2" d="m29.6 45.9 0.5 0.4-0.1 0.6-1.8 0.6h-0.2l-0.1-0.5v-0.1l1.7-1z"/>
  <path class="cls-2" d="m30 48.4 0.5 0.5v0.5l-1 0.3-0.4-0.1v-0.6l0.9-0.6z"/>
  <path class="cls-2" d="m30.2 50.4c0.4 0.2 0.4 0.8 0 0.8-0.3 0.2-0.8-0.8 0-0.8z"/>
  <path class="cls-3" d="m38.4 59h0.3c-0.3-0.4 1.4-1.1 2.3-1.1v0.3c0.7-0.5-1.4-1.3-2.9 0.4l0.3 0.4z"/>
  <path class="cls-6" d="m38.1 53.9 1.1-0.8 2.7-0.5-0.5 2.7"/>
</svg>
